<svg width="32" height="32" viewBox="0 0 32 32" fill="none" xmlns="http://www.w3.org/2000/svg">
<path d="M28.6506 9.92771C26.4578 5.20482 21.5663 2 16 2C8.24096 2 2 8.24096 2 16C2 21.9036 5.71084 26.9639 10.7711 28.988C12.4578 29.6627 14.1446 30 16 30C23.759 30 30 23.759 30 16C30 13.8072 29.6627 11.7831 28.6506 9.92771ZM16 27.4699C14.4819 27.4699 13.1325 27.1325 11.6145 26.6265C7.22892 24.9398 4.36145 20.7229 4.36145 16C4.36145 9.59036 9.59036 4.53012 15.8313 4.53012C20.2169 4.53012 24.2651 7.06024 26.1205 11.1084C26.7952 12.6265 27.3012 14.3133 27.3012 16C27.4699 22.4096 22.4096 27.4699 16 27.4699ZM20.8916 18.1928C20.8916 20.2169 19.5422 21.7349 17.012 22.0723V23.759C17.012 24.4337 16.506 24.9398 15.8313 24.9398C15.1566 24.9398 14.6506 24.4337 14.6506 23.759V21.9036C12.7952 21.5663 11.6145 20.7229 11.1084 19.7108C10.9398 19.5422 10.9398 19.2048 10.9398 19.0361C10.9398 18.3614 11.4458 17.8554 12.1205 17.8554C12.6265 17.8554 12.9639 18.0241 13.3012 18.5301C13.6386 19.5422 14.6506 19.8795 15.8313 19.8795C17.1807 19.8795 18.1928 19.2048 18.1928 18.3614C18.1928 17.5181 17.6867 17.012 16 16.8434L14.988 16.506C12.4578 16 11.2771 14.8193 11.2771 12.9639C11.2771 11.1084 12.6265 9.75904 14.8193 9.25301V7.56626C14.8193 6.89157 15.3253 6.38554 16 6.38554C16.6747 6.38554 17.1807 6.89157 17.1807 7.56626V9.42169C18.8675 9.75904 20.0482 10.6024 20.5542 11.7831C20.5542 11.9518 20.5542 12.2892 20.5542 12.4578C20.5542 13.1325 20.0482 13.4699 19.3735 13.4699C18.8675 13.4699 18.3614 13.3012 18.1928 12.6265C17.8554 11.7831 17.012 11.4458 16 11.4458C14.6506 11.4458 13.8072 11.9518 13.8072 12.9639C13.8072 13.8072 14.4819 14.1446 15.8313 14.4819L17.1807 14.6506C19.8795 15.1566 20.8916 16.3373 20.8916 18.1928Z" fill="url(#paint0_linear)"/>
<defs>
<linearGradient id="paint0_linear" x1="3.16667" y1="7.6" x2="33.689" y2="11.8392" gradientUnits="userSpaceOnUse">
<stop stop-color="#7FFBE5"/>
<stop offset="1" stop-color="#84BEFA"/>
</linearGradient>
</defs>
</svg>
