<svg width="32" height="32" viewBox="0 0 32 32" fill="none" xmlns="http://www.w3.org/2000/svg">
<g clip-path="url(#clip0)">
<path d="M29.0068 0.57151C27.4879 0.079189 25.8845 -0.10152 24.2935 0.0402889C22.7025 0.182097 21.1569 0.643473 19.75 1.39657C16.9437 3.04038 14.8391 5.65027 13.8338 8.73334C13.1363 8.00763 12.3324 7.39136 11.4494 6.90551C8.86255 5.56581 5.86784 5.23102 3.0469 5.9662C2.67646 6.06709 2.36056 6.30865 2.16712 6.63894C2.07838 6.80512 2.02365 6.98719 2.00614 7.17458C1.98863 7.36197 2.00867 7.55095 2.06509 7.73057C2.94408 10.5017 4.82519 12.8493 7.3438 14.3184C8.83176 15.1489 10.5087 15.5859 12.2145 15.5878C13.026 15.5892 13.8348 15.4954 14.6243 15.3085V23.3688C12.485 23.6062 10.5088 24.6206 9.07383 26.2178C7.63883 27.815 6.84581 29.8828 6.84651 32.0257H24.3274C24.325 29.8817 23.5292 27.8137 22.0921 26.2168C20.655 24.6199 18.6773 23.606 16.5369 23.3688V11.0435C17.129 11.1174 17.7251 11.1555 18.3219 11.1578C20.418 11.179 22.4849 10.6679 24.3274 9.67266C25.7175 8.89275 26.9331 7.83872 27.8999 6.57503C28.8668 5.31133 29.5645 3.86456 29.9503 2.3232V2.3232C30.0475 1.9665 30.0039 1.58629 29.8285 1.26057C29.6531 0.934847 29.359 0.688305 29.0068 0.57151ZM8.26183 12.6556C6.33753 11.5274 4.86106 9.77519 4.07968 7.6925C6.26709 7.22737 8.54897 7.53715 10.5314 8.56834C11.8881 9.31765 13.0026 10.4359 13.7445 11.7925L12.6352 11.0435C11.5673 10.4507 10.4547 9.9414 9.30738 9.52035C9.14675 9.4648 8.97052 9.47504 8.81748 9.54884C8.66445 9.62263 8.54713 9.75393 8.49133 9.91384C8.43553 10.0737 8.44584 10.2492 8.51997 10.4015C8.5941 10.5539 8.72596 10.6707 8.88659 10.7262C9.96426 11.1215 11.0088 11.6012 12.0105 12.1606C12.7101 12.5447 13.387 12.9685 14.0378 13.4299C12.081 13.8582 10.0351 13.584 8.26183 12.6556V12.6556ZM23.3966 7.97175C21.3788 9.04542 19.0694 9.45008 16.8046 9.12685C16.8796 9.10434 16.9462 9.06015 16.9959 8.99991C17.7979 8.29233 18.6501 7.64328 19.546 7.05783C20.6365 6.32929 21.7785 5.68024 22.9631 5.11574C23.0403 5.08281 23.1101 5.03471 23.1682 4.97433C23.2263 4.91395 23.2716 4.84253 23.3014 4.76432C23.3311 4.68611 23.3448 4.60273 23.3414 4.51917C23.338 4.43561 23.3178 4.35357 23.2819 4.27797C23.2123 4.12502 23.0846 4.00575 22.9269 3.94627C22.7692 3.88679 22.5942 3.89196 22.4403 3.96064C21.1796 4.54789 19.9687 5.23557 18.8192 6.01696C17.8976 6.62245 17.0237 7.29717 16.2053 8.03522C17.1406 5.94859 18.7164 4.21094 20.7062 3.07211C22.9424 1.87933 25.5538 1.58846 27.9995 2.25973C27.2619 4.68311 25.613 6.7294 23.3966 7.97175V7.97175Z" fill="url(#paint0_linear)"/>
</g>
<defs>
<linearGradient id="paint0_linear" x1="3.16671" y1="6.39987" x2="33.827" y2="10.1223" gradientUnits="userSpaceOnUse">
<stop stop-color="#7FFBE5"/>
<stop offset="1" stop-color="#84BEFA"/>
</linearGradient>
<clipPath id="clip0">
<rect width="32" height="32" fill="white"/>
</clipPath>
</defs>
</svg>
