<svg width="32" height="32" viewBox="0 0 32 32" fill="none" xmlns="http://www.w3.org/2000/svg">
<g clip-path="url(#clip0)">
<path d="M4.72224 25.5117H27.2777C28.3877 25.5079 29.4509 25.0688 30.2344 24.2906C31.0179 23.5123 31.4579 22.4584 31.4579 21.3596V7.13797C31.4579 6.59456 31.3497 6.05648 31.1397 5.55444C30.9296 5.0524 30.6217 4.59623 30.2336 4.21198C29.8454 3.82774 29.3846 3.52293 28.8774 3.31498C28.3703 3.10703 27.8267 3 27.2777 3H4.72224C3.61361 3 2.5504 3.43596 1.76648 4.21198C0.982553 4.988 0.542138 6.04051 0.542138 7.13797V21.3596C0.542132 22.4584 0.98209 23.5123 1.76561 24.2906C2.54912 25.0688 3.6123 25.5079 4.72224 25.5117V25.5117ZM2.68213 7.15209C2.68213 6.61648 2.89709 6.1028 3.27969 5.72406C3.66229 5.34532 4.18117 5.13254 4.72224 5.13254H27.2777C27.8188 5.13254 28.3377 5.34532 28.7203 5.72406C29.1029 6.1028 29.3179 6.61648 29.3179 7.15209V21.3737C29.3179 21.9106 29.1034 22.4258 28.7212 22.8068C28.339 23.1877 27.8201 23.4037 27.2777 23.4074H4.72224C4.17986 23.4037 3.66101 23.1877 3.27882 22.8068C2.89663 22.4258 2.68212 21.9106 2.68213 21.3737V7.15209ZM8.90239 18.8316V13.5356C8.90615 13.1897 9.04756 12.8592 9.29598 12.616C9.54439 12.3727 9.87975 12.2363 10.2292 12.2363H11.3277C11.6758 12.2363 12.0096 12.3732 12.2558 12.6168C12.5019 12.8605 12.6402 13.191 12.6402 13.5356V18.8316C12.6403 19.1775 12.5024 19.5095 12.2567 19.7554C12.0109 20.0013 11.6771 20.1413 11.3277 20.145H10.2292C10.0537 20.145 9.88004 20.1106 9.71813 20.0437C9.55621 19.9768 9.40931 19.8788 9.28592 19.7554C9.16253 19.6319 9.0651 19.4854 8.99927 19.3245C8.93343 19.1635 8.90051 18.9912 8.90239 18.8175V18.8316ZM14.1382 18.8316V10.358C14.1382 10.012 14.276 9.6801 14.5218 9.43419C14.7675 9.18828 15.1014 9.04826 15.4508 9.04454H16.5493C16.8987 9.04826 17.2325 9.18828 17.4782 9.43419C17.724 9.6801 17.8618 10.012 17.8618 10.358V18.8316C17.8618 19.1775 17.724 19.5095 17.4782 19.7554C17.2325 20.0013 16.8987 20.1413 16.5493 20.145H15.4508C15.2765 20.1432 15.1043 20.1074 14.9441 20.0397C14.7838 19.9719 14.6386 19.8737 14.5167 19.7504C14.3949 19.6271 14.2987 19.4813 14.2337 19.3212C14.1688 19.1611 14.1363 18.99 14.1382 18.8175V18.8316ZM19.3598 18.8316V12.0527C19.3598 11.7068 19.4976 11.3748 19.7434 11.1289C19.9891 10.883 20.3229 10.743 20.6723 10.7393H21.7709C22.1227 10.7393 22.4602 10.8776 22.7091 11.124C22.9579 11.3703 23.0976 11.7044 23.0976 12.0527V18.8316C23.0976 19.0041 23.0634 19.1749 22.9967 19.3342C22.93 19.4936 22.8323 19.6384 22.7091 19.7603C22.5859 19.8823 22.4396 19.979 22.2786 20.045C22.1176 20.1111 21.9451 20.145 21.7709 20.145H20.7009C20.5242 20.1469 20.349 20.1139 20.1854 20.0478C20.0218 19.9818 19.8732 19.8841 19.7483 19.7604C19.6234 19.6368 19.5247 19.4897 19.458 19.3277C19.3913 19.1658 19.3579 18.9924 19.3598 18.8175V18.8316ZM32 27.9549C31.9963 28.2347 31.8824 28.502 31.6826 28.6999C31.4827 28.8977 31.2127 29.0105 30.93 29.0141H1.07C0.786215 29.0141 0.514051 28.9025 0.313388 28.7039C0.112725 28.5052 0 28.2358 0 27.9549C0 27.674 0.112725 27.4046 0.313388 27.2059C0.514051 27.0073 0.786215 26.8957 1.07 26.8957H30.93C31.2151 26.8994 31.4873 27.0142 31.6875 27.215C31.8878 27.4159 32.0001 27.6868 32 27.969V27.9549Z" fill="url(#paint0_linear)"/>
</g>
<defs>
<linearGradient id="paint0_linear" x1="1.33333" y1="8.20283" x2="35.8805" y2="14.1051" gradientUnits="userSpaceOnUse">
<stop stop-color="#7FFBE5"/>
<stop offset="1" stop-color="#84BEFA"/>
</linearGradient>
<clipPath id="clip0">
<rect width="32" height="32" fill="white"/>
</clipPath>
</defs>
</svg>
